<?xml version="1.0" encoding="UTF-8"?>
<!DOCTYPE svg PUBLIC "-//W3C//DTD SVG 1.1//EN" "http://www.w3.org/Graphics/SVG/1.1/DTD/svg11.dtd">
<!-- Creator: CorelDRAW Standard 2021 (64 Bit) -->
<svg xmlns="http://www.w3.org/2000/svg" xml:space="preserve" width="138.435mm" height="100.404mm" version="1.1" style="shape-rendering:geometricPrecision; text-rendering:geometricPrecision; image-rendering:optimizeQuality; fill-rule:evenodd; clip-rule:evenodd"
viewBox="0 0 863.8 626.49"
 xmlns:xlink="http://www.w3.org/1999/xlink"
 xmlns:xodm="http://www.corel.com/coreldraw/odm/2003">
 <defs>
  <style type="text/css">
   <![CDATA[
    .fil0 {fill:#1ED9A4}
   ]]>
  </style>
 </defs>
 <g id="Camada_x0020_1">
  <metadata id="CorelCorpID_0Corel-Layer"/>
  <path class="fil0" d="M87.48 85.85c0,46.74 -1.72,52.28 -25.37,93.26 -51.38,89.02 -80.42,200.17 -49.25,306.14 6.63,22.54 22.66,53.59 35.4,69.62 3.94,4.95 8.08,8.01 12.25,13.03 25.55,30.79 83.93,58.59 126.16,58.59l65.1 0c25.26,-1.32 48.09,-6.22 82.06,-22.03 11.46,-5.33 20.83,-10.84 31,-17.62 17.41,-11.6 37.85,-31.89 50.51,-48.67 3.82,-5.07 6.81,-9.75 9.87,-15.41 3.57,-6.59 6.16,-9.65 9.03,-16.25 4.08,-9.38 43.18,-93.94 9.13,-93.94 -14.24,0 -54.23,28.93 -99.31,38.77 -19.51,4.26 -30.99,3.08 -30.99,19.57 0,24.37 34.78,11.45 49.89,7.11 10.99,-3.16 17.77,-5.58 27.63,-9.32 7.66,-2.91 19.43,-9.52 27.5,-11.4 -2.16,4.51 -3.02,10.47 -5.23,16.16 -24.75,63.81 -64.63,98.17 -131.72,117.21 -36.91,10.47 -35.43,4.38 -60.37,7.86 -8.63,1.2 -11.78,-0.98 -20.47,-1.22 -45.29,-1.25 -99.13,-22.78 -124.22,-56.65 -35.66,-48.11 -44.99,-83.5 -44.99,-149.48 0,-79.81 29.77,-144.36 63.58,-204.8 40.72,-72.79 15.68,-85.19 24.77,-124.97 2.81,-12.29 8.18,-22.38 16.67,-28.06 11.01,7.37 16.8,35.72 61.34,43.68 20.62,3.69 27.18,-0.67 42.09,10.41 9.17,6.82 16.76,20.55 17.08,35.45 0.56,25.69 -31.05,96.82 -31.05,178.83 0,45.05 -0.81,75.98 9.7,120.6 4.48,19.04 13.61,55.67 21.41,71.94 -38.03,-8.86 -74.74,-48.22 -87.8,-87.23 -5.92,-17.7 -2.33,-39.18 -21.11,-39.18 -35.43,0 -2.1,72.09 14.7,94.2 5.25,6.91 10,13.21 15.9,19.11 23.19,23.21 52.96,41.24 91.91,48.14 52.04,9.22 17.14,-36.14 4.31,-82.13 -24.74,-88.7 -22.88,-183.39 3.25,-272.09 10.48,-35.59 20.19,-76.29 -9.94,-106.28 -11.45,-11.4 -24.34,-18.68 -43.4,-22.72 -15.54,-3.29 -31.45,3.38 -48.97,-17.15 -9.38,-11 -17.46,-28.64 -37.48,-28.64 -32.73,0 -48.47,41.51 -50.98,71.67 -0.4,4.77 -0.52,3.18 -0.51,6.17 0.01,3.36 0.93,1.85 0.93,7.73z"/>
  <path class="fil0" d="M494.09 85.57c0,46.74 -1.72,52.28 -25.37,93.26 -51.38,89.02 -80.42,200.17 -49.25,306.14 6.63,22.54 22.66,53.59 35.4,69.62 3.94,4.95 8.08,8.01 12.25,13.03 25.55,30.79 83.93,58.59 126.16,58.59l65.1 0c25.26,-1.32 48.09,-6.22 82.06,-22.03 11.46,-5.33 20.83,-10.84 31,-17.62 17.41,-11.6 37.85,-31.89 50.51,-48.67 3.82,-5.07 6.81,-9.75 9.87,-15.41 3.57,-6.59 6.16,-9.65 9.03,-16.25 4.08,-9.38 43.18,-93.94 9.13,-93.94 -14.24,0 -54.23,28.93 -99.31,38.77 -19.51,4.26 -30.99,3.08 -30.99,19.57 0,24.37 34.78,11.45 49.89,7.11 10.99,-3.16 17.77,-5.58 27.63,-9.32 7.66,-2.91 19.43,-9.52 27.5,-11.4 -2.16,4.51 -3.02,10.47 -5.23,16.16 -24.75,63.81 -64.63,98.17 -131.72,117.21 -36.91,10.47 -35.43,4.38 -60.37,7.86 -8.63,1.2 -11.78,-0.98 -20.47,-1.22 -45.29,-1.25 -99.13,-22.78 -124.22,-56.65 -35.66,-48.11 -44.99,-83.5 -44.99,-149.48 0,-79.81 29.77,-144.36 63.58,-204.8 40.72,-72.79 15.68,-85.19 24.77,-124.97 2.81,-12.29 8.18,-22.38 16.67,-28.06 11.01,7.37 16.8,35.72 61.34,43.68 20.62,3.69 27.18,-0.67 42.09,10.41 9.17,6.82 16.76,20.55 17.08,35.45 0.56,25.69 -31.05,96.82 -31.05,178.83 0,45.05 -0.81,75.98 9.7,120.6 4.48,19.04 13.61,55.67 21.41,71.94 -38.03,-8.86 -74.74,-48.22 -87.8,-87.23 -5.92,-17.7 -2.33,-39.18 -21.11,-39.18 -35.43,0 -2.1,72.09 14.7,94.2 5.25,6.91 10,13.21 15.9,19.11 23.19,23.21 52.96,41.24 91.91,48.14 52.04,9.22 17.14,-36.14 4.31,-82.13 -24.74,-88.7 -22.88,-183.39 3.25,-272.09 10.48,-35.59 20.19,-76.29 -9.94,-106.28 -11.45,-11.4 -24.34,-18.68 -43.4,-22.72 -15.54,-3.29 -31.45,3.38 -48.97,-17.15 -9.38,-11 -17.46,-28.64 -37.48,-28.64 -32.73,0 -48.47,41.51 -50.98,71.67 -0.4,4.77 -0.52,3.18 -0.51,6.17 0.01,3.36 0.93,1.85 0.93,7.73z"/>
 </g>
</svg>
